<svg id="logosandtypes_com" xmlns="http://www.w3.org/2000/svg" viewBox="0 0 150 150.2"><path d="M0 .2h150v150H0V.2z" fill="none"/><path d="M87.6 87.7S67.4 67.3 66 65.9c-5.1-5-8-15.2-.8-22.6 4.9-5.2 11.4-4.9 16.1-3 3.5 1.4 5.5 3.6 7.2 5.5 1.7-1.9 3.7-4.1 7.2-5.5 4.7-1.8 11.1-2 16.2 3 7.9 7.8 4.4 17.8-.1 22.1L89.6 87.6l-.1 1.8h11.2c10 0 17.7-2.3 23.4-6.4 6.2-4.3 10.9-10.4 13.5-17.4 1.6-4.3 6.2-19.5-5.8-34.8s-28.4-14-30.7-14H25.3c-3.6 0-6.5 2.9-6.5 6.4V102c-.2 19 14.9 34.5 33.9 34.8 19 .2 34.5-14.9 34.8-33.9V87.7" fill="#df0d2d"/></svg>